<?xml version="1.0" encoding="utf-8"?>
<!-- Generator: Adobe Illustrator 23.0.5, SVG Export Plug-In . SVG Version: 6.00 Build 0)  -->
<svg version="1.1" xmlns="http://www.w3.org/2000/svg" xmlns:xlink="http://www.w3.org/1999/xlink" x="0px" y="0px"
	 viewBox="0 0 512 512" style="enable-background:new 0 0 512 512;" xml:space="preserve">
<style type="text/css">
	.st0{display:none;}
	.st1{display:inline;fill:none;}
	.st2{fill:url(#SVGID_1_);}
	.st3{fill:#FFFFFF;}
	.st4{fill:#C4921B;}
	.st5{fill:#712105;}
	.st6{fill:#753B0A;}
	.st7{fill:#AA3008;}
	.st8{fill:#782102;}
	.st9{fill:#B4AEA4;}
	.st10{fill:#991D19;}
</style>
<g id="Слой_1" class="st0">
	
		<image style="display:inline;overflow:visible;" width="431" height="210" xlink:href="A801D766.jpg"  transform="matrix(1 0 0 1 -40 179)">
	</image>
	<line class="st1" x1="343" y1="231" x2="183" y2="225"/>
</g>
<g id="Слой_2">
	<linearGradient id="SVGID_1_" gradientUnits="userSpaceOnUse" x1="257" y1="145.2597" x2="257" y2="437">
		<stop  offset="0" style="stop-color:#AD3219"/>
		<stop  offset="0.3939" style="stop-color:#B57520"/>
		<stop  offset="0.7318" style="stop-color:#B57920"/>
	</linearGradient>
	<polyline class="st2" points="388.8,437 473,405.2 471.1,332.3 437.5,165.8 428.1,152.7 394.5,156.5 392.6,358.5 388.8,437 
		41,401.5 46.6,330.4 84,156.5 95.2,145.3 394.5,156.5 	"/>
	<polyline class="st3" points="228,188.3 170,240.6 168.2,285.5 203.7,248.1 198.1,309.8 231.8,309.8 239.2,244.4 274.8,289.3 
		278.5,246.2 231.8,186.4 	"/>
	
		<rect x="51.3" y="340.5" transform="matrix(0.9976 6.967264e-02 -6.967264e-02 0.9976 24.5569 -14.4385)" class="st4" width="335.9" height="8.6"/>
	<g>
		<polygon class="st5" points="428.1,152.7 437.5,165.8 471.1,332.3 473,405.2 388.8,437 394.5,156.5 		"/>
		
			<rect x="395.6" y="342.3" transform="matrix(0.9598 -0.2807 0.2807 0.9598 -79.8971 135.0216)" class="st6" width="71.5" height="8.1"/>
	</g>
	<g>
		<polygon class="st7" points="95.2,321.1 127,321.1 143.9,173.3 112.1,173.3 		"/>
		<polygon class="st8" points="123.3,186.4 112.1,173.3 95.2,321.1 110.2,309.8 		"/>
	</g>
	<g>
		<polygon class="st7" points="306.6,341.6 340.8,341.6 358.9,182.7 324.7,182.7 		"/>
		<polygon class="st8" points="336.8,196.7 324.7,182.7 306.6,341.6 322.7,329.6 		"/>
	</g>
</g>
<g id="Слой_5">
	<g>
		<polygon class="st9" points="428.1,152.7 385.1,76.1 132.6,74.2 95.2,145.3 394.5,156.5 		"/>
		<g>
			<polygon class="st10" points="394.5,156.5 370.5,156.5 302.8,74.2 328.7,74.2 			"/>
			<polygon class="st10" points="385.1,111.6 355.2,76.1 385.1,76.1 			"/>
			<polygon class="st10" points="396,92.6 386.2,77.7 394.2,156.5 402.7,156.7 			"/>
			<polygon class="st10" points="416.9,154.6 411.3,154.6 405.7,111.6 413.2,126.6 			"/>
			<polygon class="st10" points="243,150.9 220.5,150.9 156.9,74.2 181.3,74.2 			"/>
			<polygon class="st10" points="291.6,152.7 268.7,152.7 203.7,74.2 228.5,74.2 			"/>
			<polygon class="st10" points="342.1,154.6 318.7,154.6 252.3,74.2 277.7,74.2 			"/>
			<polygon class="st10" points="171.9,149 196.2,149 132.6,74.2 123.3,91 			"/>
			<polygon class="st10" points="123.4,147 149.7,147.8 113.9,107.9 104.4,125 			"/>
		</g>
	</g>
</g>
</svg>
