<?xml version="1.0" encoding="utf-8"?>
<!-- Generator: Adobe Illustrator 23.0.5, SVG Export Plug-In . SVG Version: 6.00 Build 0)  -->
<svg version="1.1" xmlns="http://www.w3.org/2000/svg" xmlns:xlink="http://www.w3.org/1999/xlink" x="0px" y="0px"
	 viewBox="0 0 512 512" style="enable-background:new 0 0 512 512;" xml:space="preserve">
<style type="text/css">
	.st0{display:none;}
	.st1{display:inline;}
	.st2{fill:#C1B4B2;}
	.st3{fill:#7E6855;}
	.st4{fill:#C8740A;}
	.st5{fill:url(#SVGID_1_);}
	.st6{fill:#221E23;}
	.st7{fill:url(#SVGID_2_);}
	.st8{fill:#241915;}
	.st9{fill:url(#SVGID_3_);}
	.st10{fill:#2F231E;}
	.st11{fill:url(#SVGID_4_);}
	.st12{fill:#897870;}
	.st13{fill:#8B5932;}
	.st14{fill:#C49500;}
	.st15{fill:url(#SVGID_5_);}
	.st16{fill:url(#SVGID_6_);}
	.st17{fill:url(#SVGID_7_);}
	.st18{fill:url(#SVGID_8_);}
	.st19{fill:#C89700;}
	.st20{fill:none;stroke:#A47300;stroke-width:5;stroke-miterlimit:10;}
</style>
<g id="Слой_1" class="st0">
	<g class="st1">
		<image style="overflow:visible;" width="431" height="210" xlink:href="FE242DD8.jpg"  transform="matrix(1 0 0 1 40 151)">
		</image>
	</g>
</g>
<g id="Слой_5">
	<g>
		
			<rect x="74.3" y="234.5" transform="matrix(-0.9999 -1.075091e-02 1.075091e-02 -0.9999 544.3503 576.7549)" class="st2" width="398.8" height="104.8"/>
		<polygon class="st3" points="67.6,212.2 71.1,110.1 63.7,109.4 62.6,211.7 		"/>
		<polygon class="st3" points="78,338 76.8,232.8 68.7,232.6 72.6,337.9 		"/>
		
			<rect x="67.1" y="116.1" transform="matrix(-0.9994 -3.485647e-02 3.485647e-02 -0.9994 526.514 343.8429)" class="st2" width="398.2" height="102.5"/>
	</g>
	<g>
		<polygon class="st4" points="124.9,214.4 204.6,216.1 168.5,110.7 83.8,108.6 		"/>
		<polygon class="st4" points="460.6,238.1 473.2,275.8 478.8,341.4 423.8,338.5 388.1,233.4 		"/>
		<polygon class="st4" points="473,224.9 455.6,224.1 413,119.9 465.2,122.3 		"/>
		<polygon class="st4" points="269.8,339.1 349.6,340 312.4,238.6 227.6,237.3 		"/>
		<polygon class="st4" points="80.2,231.5 149.6,231.3 188.1,337.9 108.3,338.4 78,263.8 		"/>
		<polygon class="st4" points="290,218.7 365.3,222.4 334.1,117.6 254.2,113.4 		"/>
	</g>
</g>
<g id="Слой_7">
	<g>
		
			<linearGradient id="SVGID_1_" gradientUnits="userSpaceOnUse" x1="443.0562" y1="109.2252" x2="443.0562" y2="427.7248" gradientTransform="matrix(1 2.053285e-03 -2.053285e-03 1 0.5387 -0.441)">
			<stop  offset="0" style="stop-color:#7C7264"/>
			<stop  offset="1" style="stop-color:#544046"/>
		</linearGradient>
		<polygon class="st5" points="445,428.2 468,428.2 418,109.6 		"/>
		<g>
			<polygon class="st6" points="468,428.2 418,109.6 474.9,425.6 			"/>
			<linearGradient id="SVGID_2_" gradientUnits="userSpaceOnUse" x1="410.2456" y1="268.9747" x2="445.0861" y2="268.9747">
				<stop  offset="0" style="stop-color:#7C7264"/>
				<stop  offset="1" style="stop-color:#544046"/>
			</linearGradient>
			<polyline class="st7" points="417.7,109.7 410.2,191.8 437.6,428.2 445.1,428.2 			"/>
		</g>
	</g>
	
		<rect x="365.6" y="372.5" transform="matrix(0.9884 -0.1516 0.1516 0.9884 -53.8273 66.1789)" class="st8" width="83.2" height="27.4"/>
	<g>
		
			<linearGradient id="SVGID_3_" gradientUnits="userSpaceOnUse" x1="351.2576" y1="69.1035" x2="351.2576" y2="413.0515" gradientTransform="matrix(1.1932 0.1531 -0.1289 1.0047 -6.245 -14.2352)">
			<stop  offset="0" style="stop-color:#8A8277"/>
			<stop  offset="1" style="stop-color:#4E3F44"/>
		</linearGradient>
		<polygon class="st9" points="373.2,456.3 346.5,452.8 390.4,107.2 417.1,110.7 		"/>
		<polygon class="st10" points="372.9,455.6 417.7,111.6 382.9,453.1 		"/>
	</g>
	<g>
		<linearGradient id="SVGID_4_" gradientUnits="userSpaceOnUse" x1="407.757" y1="45" x2="407.757" y2="114.681">
			<stop  offset="0" style="stop-color:#897870"/>
			<stop  offset="0.2843" style="stop-color:#665752"/>
			<stop  offset="0.5593" style="stop-color:#4C3E3B"/>
			<stop  offset="0.8059" style="stop-color:#3D2F2E"/>
			<stop  offset="1" style="stop-color:#372A29"/>
		</linearGradient>
		<circle class="st11" cx="407.8" cy="79.8" r="34.8"/>
		<ellipse class="st12" cx="404" cy="81.1" rx="31.1" ry="33.6"/>
	</g>
	<g>
		<circle class="st13" cx="404" cy="81.1" r="26.1"/>
		<ellipse class="st14" cx="402.8" cy="81.1" rx="22.4" ry="23.6"/>
	</g>
	<g>
		<linearGradient id="SVGID_5_" gradientUnits="userSpaceOnUse" x1="125.3" y1="45" x2="125.3" y2="107.2152">
			<stop  offset="0" style="stop-color:#897870"/>
			<stop  offset="0.2843" style="stop-color:#665752"/>
			<stop  offset="0.5593" style="stop-color:#4C3E3B"/>
			<stop  offset="0.8059" style="stop-color:#3D2F2E"/>
			<stop  offset="1" style="stop-color:#372A29"/>
		</linearGradient>
		<circle class="st15" cx="125.3" cy="76.1" r="31.1"/>
		<ellipse class="st12" cx="122" cy="77.2" rx="27.8" ry="30"/>
	</g>
	<g>
		<circle class="st13" cx="122" cy="77.2" r="23.3"/>
		<ellipse class="st14" cx="120.9" cy="77.2" rx="20" ry="21.1"/>
	</g>
	<g>
		
			<linearGradient id="SVGID_6_" gradientUnits="userSpaceOnUse" x1="160.0243" y1="104.8063" x2="160.0243" y2="401.0604" gradientTransform="matrix(1 2.053285e-03 -2.053285e-03 1 0.5387 -0.441)">
			<stop  offset="0" style="stop-color:#7C7264"/>
			<stop  offset="1" style="stop-color:#544046"/>
		</linearGradient>
		<polygon class="st16" points="162,401 185,401 135,104.6 		"/>
		<g>
			<polygon class="st6" points="185,401 135,104.6 191.9,398.6 			"/>
			<linearGradient id="SVGID_7_" gradientUnits="userSpaceOnUse" x1="127.2456" y1="252.8497" x2="162.0861" y2="252.8497">
				<stop  offset="0" style="stop-color:#7C7264"/>
				<stop  offset="1" style="stop-color:#544046"/>
			</linearGradient>
			<polyline class="st17" points="134.7,104.7 127.2,181.1 154.6,401 162.1,401 			"/>
		</g>
	</g>
	
		<rect x="87" y="348.3" transform="matrix(0.9884 -0.1516 0.1516 0.9884 -53.4215 23.1315)" class="st8" width="76.1" height="27.5"/>
	<g>
		
			<linearGradient id="SVGID_8_" gradientUnits="userSpaceOnUse" x1="117.0317" y1="97.1396" x2="117.0317" y2="421.427" gradientTransform="matrix(1.1947 0.141 -0.1187 1.0059 -8.9016 -13.328)">
			<stop  offset="0" style="stop-color:#8A8277"/>
			<stop  offset="1" style="stop-color:#4E3F44"/>
		</linearGradient>
		<polygon class="st18" points="93.1,428.3 66,425.3 107.2,99.7 134.3,102.7 		"/>
		<polygon class="st10" points="92.8,427.7 134.9,103.6 102.8,425.3 		"/>
	</g>
</g>
<g id="Слой_4">
	<g>
		
			<rect x="36.6" y="241.6" transform="matrix(0.9974 7.258397e-02 -7.258397e-02 0.9974 21.9581 -16.3506)" class="st2" width="398.8" height="104.8"/>
		<polygon class="st3" points="447.6,236.6 452.6,134.6 460,134.6 452.6,236.6 		"/>
		<polygon class="st3" points="426.7,361.2 436.7,256.5 444.8,256.9 432.1,361.5 		"/>
		
			<rect x="54.2" y="124.2" transform="matrix(0.9988 4.851640e-02 -4.851640e-02 0.9988 8.8082 -12.0852)" class="st2" width="398.2" height="102.5"/>
	</g>
	<g>
		<polygon class="st4" points="390.3,234.1 310.7,229.2 355.5,127.1 440.1,132.1 		"/>
		<polygon class="st4" points="53.8,229.8 38.1,266.3 27,331.2 82.1,332.8 126.5,231.1 		"/>
		<polygon class="st4" points="42.5,215.5 59.9,216.2 111.1,116 58.8,114 		"/>
		<polygon class="st4" points="235.5,346.3 155.9,340.5 201.5,242.6 286,248.4 		"/>
		<polygon class="st4" points="433.4,254.8 364.2,248.9 317,351.9 396.5,359 432.9,287.2 		"/>
		<polygon class="st4" points="225.4,224.6 150.1,222 189.9,120.2 269.9,122.7 		"/>
	</g>
</g>
<g id="Слой_3">
	
		<rect x="135.5" y="172.9" transform="matrix(0.9911 0.1333 -0.1333 0.9911 33.1282 -28.8639)" class="st19" width="193.2" height="120.1"/>
	
		<rect x="139.4" y="177.7" transform="matrix(0.9911 0.1333 -0.1333 0.9911 33.1227 -28.8946)" class="st20" width="185.9" height="110.5"/>
</g>
</svg>
