<?xml version="1.0" encoding="utf-8"?>
<!-- Generator: Adobe Illustrator 23.0.5, SVG Export Plug-In . SVG Version: 6.00 Build 0)  -->
<svg version="1.1" id="Слой_1" xmlns="http://www.w3.org/2000/svg" xmlns:xlink="http://www.w3.org/1999/xlink" x="0px" y="0px"
	 viewBox="0 0 60 80" style="enable-background:new 0 0 60 80;" xml:space="preserve">
<style type="text/css">
	.st0{fill:#5D4837;stroke:#000000;stroke-miterlimit:10;}
	.st1{fill:none;stroke:#000000;stroke-miterlimit:10;}
	.st2{fill:#FFFFFF;stroke:#000000;stroke-miterlimit:10;}
	.st3{fill:#6B6966;stroke:#000000;stroke-miterlimit:10;}
	.st4{fill:#7F7E7C;}
	.st5{font-family:'BaskOldFace';}
	.st6{font-size:12px;}
	.st7{fill:#6B6966;}
	.st8{font-size:10px;}
</style>
<path class="st0" d="M0,80"/>
<line class="st1" x1="48.02" y1="62.58" x2="60" y2="80"/>
<path class="st2" d="M60,0"/>
<line class="st1" x1="60" y1="0" x2="48" y2="17.45"/>
<line class="st1" x1="48" y1="17.24" x2="48.02" y2="63.08"/>
<line class="st3" x1="0" y1="80" x2="15.87" y2="56.93"/>
<line class="st3" x1="15.5" y1="57" x2="44.5" y2="57"/>
<line class="st3" x1="44.5" y1="23" x2="15.5" y2="23"/>
<line class="st3" x1="15.86" y1="23.07" x2="0" y2="0"/>
<line class="st3" x1="44.13" y1="23.07" x2="44.14" y2="56.93"/>
<line class="st3" x1="0" y1="80" x2="0" y2="0"/>
<line class="st1" x1="60" y1="80" x2="60" y2="0"/>
<line class="st1" x1="0" y1="0" x2="60" y2="0"/>
<line class="st1" x1="74.7" y1="2.31" x2="74.88" y2="2.31"/>
<line class="st1" x1="60" y1="80" x2="0" y2="80"/>
<text transform="matrix(1 0 0 1 9.709 11.5369)" class="st4 st5 st6">Mystical</text>
<text transform="matrix(1 0 0 1 10.709 74.6047)" class="st7 st5 st8">Labyrinth</text>
</svg>
